<svg id="Capa_1" data-name="Capa 1" xmlns="http://www.w3.org/2000/svg" viewBox="0 0 553.15 553.31"><defs><style>.cls-1{fill:#3b82f6;}.cls-2{fill:#f5f5f5;}</style></defs><path class="cls-1" d="M343.13-4.58C343.76,134.42,219,258,67,258c-154,0-275.23-123.86-277-272.34C-211.88-173.31-86-289.19,53.6-295c74.29-3.11,140.94,19.18,195.76,68.32C310.46-171.95,343.46-102.12,343.13-4.58ZM314.32-18.75C315-154.19,203.3-267.08,66-266.4c-135,.67-245.16,108.82-247.06,244.55-2,140.09,112.73,251.1,247.29,251.08C203.93,229.21,314.57,117.63,314.32-18.75Z" transform="translate(210.02 295.32)"/><path class="cls-1" d="M314.32-18.75c.25,136.38-110.39,248-248.14,248-134.56,0-249.25-111-247.29-251.08,1.9-135.73,112-243.88,247.06-244.55C203.3-267.08,315-154.19,314.32-18.75ZM107-159h0c0-7.83-.17-15.66.08-23.48.1-3.17-1-3.85-3.91-3.8-10.83.19-21.67.27-32.5.09-3-.05-3.83.53-3.79,3.63.18,15,0,30,.15,45,0,3.15-.87,4.64-4.08,4.64a67,67,0,0,0-15.26,2.13c-22.86,5.35-42.43,15.51-55,36.58-14,23.32-10.52,55.09,8.45,74.49C15-5.6,32.42,2.25,50.6,8.88c10.92,4,21.78,8,31.31,14.9,12,8.66,13.59,25,3.15,35-9.51,9.12-21.72,10-33.89,9.8-19.45-.24-37.92-5.17-55.55-13.2-2.81-1.28-3.8-1.28-4.57,2q-4.34,18.68-9.27,37.2c-.81,3-.24,4.2,2.61,5.5,18.26,8.33,37.67,11.45,57.43,12.58,4.69.27,5.36,1.68,5.24,5.72-.27,9,0,18-.14,27-.05,2.86.88,3.64,3.67,3.6,10.82-.14,21.65-.16,32.48,0,3.06.05,4-.79,3.92-3.9-.2-10.32.23-20.66-.22-31-.19-4.52,1.67-6,5.49-7a82,82,0,0,0,31.66-16c31.49-25.27,33.3-78.18-.41-103.38C109-23.1,92.67-29.53,76.16-36,65.68-40.1,55-43.76,46.38-51.57,39-58.3,37.51-69,43.37-77.12c6.4-8.85,16-11.25,26.18-11.82,18.47-1,36.32,1.78,53.21,9.65,2.62,1.23,3.64,1.07,4.48-2.24,3.13-12.33,6.68-24.57,10.29-36.77.82-2.77.1-3.75-2.46-4.74-7.89-3-15.84-5.88-24.22-7.21-2.92-.46-4.06-1.63-4-4.81C107.16-143,107-151,107-159Z" transform="translate(210.02 295.32)"/><path class="cls-2" d="M107-159c0,8,.18,16-.09,24-.1,3.18,1,4.35,4,4.81,8.38,1.33,16.33,4.17,24.22,7.21,2.56,1,3.28,2,2.46,4.74-3.61,12.2-7.16,24.44-10.29,36.77-.84,3.31-1.86,3.47-4.48,2.24C105.87-87.16,88-90,69.55-88.94c-10.15.57-19.78,3-26.18,11.82C37.51-69,39-58.3,46.38-51.57,55-43.76,65.68-40.1,76.16-36,92.67-29.53,109-23.1,123.51-12.28c33.71,25.2,31.9,78.11.41,103.38a82,82,0,0,1-31.66,16c-3.82,1-5.68,2.49-5.49,7,.45,10.31,0,20.65.22,31,.06,3.11-.86,4-3.92,3.9-10.83-.17-21.66-.15-32.48,0-2.79,0-3.72-.74-3.67-3.6.16-9-.13-18,.14-27,.12-4-.55-5.45-5.24-5.72-19.76-1.13-39.17-4.25-57.43-12.58-2.85-1.3-3.42-2.47-2.61-5.5q4.95-18.51,9.27-37.2c.77-3.31,1.76-3.31,4.57-2,17.63,8,36.1,13,55.55,13.2,12.17.15,24.38-.68,33.89-9.8,10.44-10,8.85-26.34-3.15-35C72.38,16.89,61.52,12.86,50.6,8.88,32.42,2.25,15-5.6,1.1-19.78c-19-19.4-22.42-51.17-8.45-74.49C5.27-115.34,24.84-125.5,47.7-130.85A67,67,0,0,1,63-133c3.21,0,4.11-1.49,4.08-4.64-.16-15,0-30-.15-45,0-3.1.82-3.68,3.79-3.63,10.83.18,21.67.1,32.5-.09,2.94-.05,4,.63,3.91,3.8-.25,7.82-.08,15.65-.08,23.48Z" transform="translate(210.02 295.32)"/></svg>